<?xml version="1.0" encoding="UTF-8" standalone="no"?>
<!-- Created with Inkscape (http://www.inkscape.org/) -->

<svg
   xmlns:dc="http://purl.org/dc/elements/1.1/"
   xmlns:cc="http://creativecommons.org/ns#"
   xmlns:rdf="http://www.w3.org/1999/02/22-rdf-syntax-ns#"
   xmlns:svg="http://www.w3.org/2000/svg"
   xmlns="http://www.w3.org/2000/svg"
   xmlns:sodipodi="http://sodipodi.sourceforge.net/DTD/sodipodi-0.dtd"
   xmlns:inkscape="http://www.inkscape.org/namespaces/inkscape"
   version="1.1"
   id="svg2"
   xml:space="preserve"
   width="517.25116"
   height="134.91519"
   viewBox="0 0 517.25115 134.91519"
   sodipodi:docname="sieg.svg"
   inkscape:version="0.92.1 r15371"><metadata
     id="metadata8"><rdf:RDF><cc:Work
         rdf:about=""><dc:format>image/svg+xml</dc:format><dc:type
           rdf:resource="http://purl.org/dc/dcmitype/StillImage" /><dc:title /></cc:Work></rdf:RDF></metadata><defs
     id="defs6"><clipPath
       clipPathUnits="userSpaceOnUse"
       id="clipPath18"><path
         d="M 0,595.28 H 841.89 V 0 H 0 Z"
         id="path16"
         inkscape:connector-curvature="0" /></clipPath><clipPath
       clipPathUnits="userSpaceOnUse"
       id="clipPath34"><path
         d="M 0,595.28 H 841.89 V 0 H 0 Z"
         id="path32"
         inkscape:connector-curvature="0" /></clipPath><clipPath
       clipPathUnits="userSpaceOnUse"
       id="clipPath66"><path
         d="M 0,595.28 H 841.89 V 0 H 0 Z"
         id="path64"
         inkscape:connector-curvature="0" /></clipPath><clipPath
       clipPathUnits="userSpaceOnUse"
       id="clipPath18-6"><path
         d="M 0,595.28 H 841.89 V 0 H 0 Z"
         id="path16-2"
         inkscape:connector-curvature="0" /></clipPath><clipPath
       clipPathUnits="userSpaceOnUse"
       id="clipPath34-9"><path
         d="M 0,595.28 H 841.89 V 0 H 0 Z"
         id="path32-8"
         inkscape:connector-curvature="0" /></clipPath><clipPath
       clipPathUnits="userSpaceOnUse"
       id="clipPath66-1"><path
         d="M 0,595.28 H 841.89 V 0 H 0 Z"
         id="path64-7"
         inkscape:connector-curvature="0" /></clipPath></defs><sodipodi:namedview
     pagecolor="#ffffff"
     bordercolor="#666666"
     borderopacity="1"
     objecttolerance="10"
     gridtolerance="10"
     guidetolerance="10"
     inkscape:pageopacity="0"
     inkscape:pageshadow="2"
     inkscape:window-width="1920"
     inkscape:window-height="1017"
     id="namedview4"
     showgrid="false"
     fit-margin-top="0"
     fit-margin-left="0"
     fit-margin-right="0"
     fit-margin-bottom="0"
     inkscape:zoom="0.42050094"
     inkscape:cx="-246.199"
     inkscape:cy="-74.380835"
     inkscape:window-x="1596"
     inkscape:window-y="-4"
     inkscape:window-maximized="1"
     inkscape:current-layer="g10" /><g
     id="g10"
     inkscape:groupmode="layer"
     inkscape:label="SIEG - Apresentação Definitivo"
     transform="matrix(1.3333333,0,0,-1.3333333,-313.74066,492.74879)"><path
       inkscape:connector-curvature="0"
       id="path22"
       style="fill:#ffffff;fill-opacity:1;fill-rule:nonzero;stroke:none"
       d="m 469.9541,318.789 c 0,-3.415 -0.439,-7.22 -1.317,-11.413 h -28.24 v -20.777 h 36.727 c 0.878,-4.097 1.317,-7.806 1.317,-11.121 0,-3.61 0.878,0.487 0,-3.61 l -63.943,-2.758 v 100.014 h 61.748 c 0.389,-2.147 0.681,-4.147 0.878,-5.999 0.194,-1.855 0.292,-3.61 0.292,-5.268 0,-3.219 -0.391,-7.074 -1.17,-11.559 h -35.849 v -16.096 h 28.24 c 0.878,-4.293 1.317,-8.098 1.317,-11.413" /><path
       inkscape:connector-curvature="0"
       id="path38"
       style="fill:#ffffff;fill-opacity:1;fill-rule:nonzero;stroke:none"
       d="m 395.5845,268.9072 c -4.666,0.031 -9.369,0.404 -13.916,0.767 -1.535,0.123 -3.068,0.245 -4.594,0.351 -1.918,0.167 -3.818,0.307 -5.711,0.441 -4.076,0.292 -8.291,0.595 -12.349,1.204 l -17.315,2.184 c -3.763,0.549 -7.464,1.224 -11.041,1.878 -1.841,0.335 -3.666,0.669 -5.477,0.982 l -7.917,1.421 c -1.707,0.351 -3.368,0.744 -5.01,1.134 l -17.039,3.989 c -2.989,0.813 -5.854,1.663 -8.633,2.485 -1.519,0.449 -3.012,0.892 -4.48,1.315 -1.381,0.427 -2.733,0.814 -4.061,1.194 -2.723,0.777 -5.295,1.512 -7.73,2.471 -2.583,0.956 -5.077,1.837 -7.442,2.673 -4.123,1.46 -7.842,3.266 -11.121,4.654 l -16.443,7.778 17.075,-6.268 c 3.231,-1.326 6.927,-2.586 11.204,-4.046 2.383,-0.814 4.896,-1.672 7.518,-2.606 2.378,-0.905 4.917,-1.603 7.605,-2.335 1.342,-0.365 2.707,-0.738 4.088,-1.151 1.451,-0.402 2.943,-0.826 4.459,-1.254 2.777,-0.789 5.638,-1.6 8.595,-2.369 l 17.006,-3.782 c 1.631,-0.365 3.276,-0.739 4.95,-1.064 l 7.885,-1.321 c 1.971,-0.316 3.962,-0.659 5.973,-1.004 3.429,-0.591 6.913,-1.19 10.462,-1.677 l 17.28,-2.032 c 4.003,-0.569 8.161,-0.83 12.183,-1.084 1.898,-0.12 3.805,-0.242 5.717,-0.393 1.523,-0.095 3.066,-0.204 4.611,-0.312 4.432,-0.318 9.014,-0.641 13.585,-0.641 l 18.94,-0.374 c 6.391,0.084 12.661,0.176 18.813,0.388 10.412,0.482 24.082,1.243 37.422,2.845 10.574,1.126 22.002,2.789 35.974,5.243 l 2.868,0.571 c 4.892,0.973 9.513,1.889 14.117,2.936 1.998,0.499 4.002,0.971 5.991,1.433 3.519,0.825 6.842,1.605 10.132,2.531 l 7.738,2.074 c 1.619,0.445 3.215,0.941 4.795,1.432 l 2.61,0.797 c 4.898,1.427 9.597,3.054 13.948,4.601 8.672,3.046 40.928,16.947 49.53,24.421 l 0.228,0.199 0.551,0.075 c 0.788,0 1.938,-0.702 2.271,-0.92 l 0.169,-0.106 0.097,-0.178 c -1.184,0.424 1.577,-0.457 -1.408,-2.475 -0.285,-0.195 -1.97,-1.709 -1.97,-1.709 -1.463,-1.368 -19.582,-11.423 -23.784,-13.299 -6.525,-3.124 -14.347,-5.989 -22.629,-9.023 l -1.732,-0.636 c -4.377,-1.631 -9.111,-3.352 -14.049,-4.874 l -2.537,-0.822 c -1.617,-0.529 -3.252,-1.063 -4.918,-1.553 l -7.756,-2.204 c -10.836,-3.113 -22.482,-5.52 -33.451,-7.655 -11.462,-1.996 -23.781,-3.997 -36.329,-5.14 -13.451,-1.472 -27.237,-2.09 -37.745,-2.464 -6.347,-0.164 -12.614,-0.2 -19.009,-0.228 h -0.013 z" /><path
       inkscape:connector-curvature="0"
       id="path42"
       style="fill:#ffffff;fill-opacity:1;fill-rule:nonzero;stroke:none"
       d="m 558.7993,323.5165 c -2.463,-0.256 -5.277,-0.696 -8.434,-1.326 v -27.856 h -3.409 c -7.075,0 -12.444,1.991 -16.106,5.967 -3.665,3.981 -5.494,10.2 -5.494,18.667 0,3.032 0.408,5.97 1.23,8.813 0.82,2.839 2.115,5.334 3.885,7.482 1.767,2.149 4.103,3.852 7.01,5.117 2.906,1.262 6.443,1.892 10.613,1.892 2.65,0 5.807,-0.409 9.474,-1.229 3.661,-0.822 7.641,-2.118 11.937,-3.884 1.136,2.778 2.114,5.272 2.937,7.482 0.82,2.21 1.515,4.295 2.084,6.254 0.568,1.956 1.043,3.885 1.421,5.78 0.379,1.895 0.631,3.912 0.758,6.064 -6.318,2.525 -12.127,4.292 -17.431,5.306 -5.307,1.009 -10.172,1.516 -14.592,1.516 -8.465,0 -15.917,-1.326 -22.36,-3.98 -6.443,-2.653 -11.841,-6.253 -16.201,-10.801 -4.357,-4.548 -7.644,-9.919 -9.853,-16.106 -2.211,-6.189 -3.317,-12.761 -3.317,-19.706 0,-7.201 0.916,-13.962 2.748,-20.277 1.83,-6.316 4.768,-11.811 8.811,-16.482 1.154,-1.335 2.443,-2.555 3.793,-3.723 26.934,5.052 51.668,12.237 73.33,21.125 v 22.579 c -6.064,1.137 -11.309,1.705 -15.729,1.705 -2.273,0 -4.642,-0.128 -7.105,-0.379" /><path
       inkscape:connector-curvature="0"
       id="path46"
       style="fill:#ffffff;fill-opacity:1;fill-rule:nonzero;stroke:none"
       d="m 372.6475,368.9931 c -2.529,0 -5.149,-0.128 -7.865,-0.379 -2.717,-0.256 -5.465,-0.696 -8.242,-1.326 v -93.596 c 10.438,-1.242 21.127,-2.171 32.023,-2.769 v 96.365 c -2.654,0.63 -5.371,1.07 -8.148,1.326 -2.78,0.251 -5.371,0.379 -7.768,0.379" /><path
       inkscape:connector-curvature="0"
       id="path50"
       style="fill:#ffffff;fill-opacity:1;fill-rule:nonzero;stroke:none"
       d="m 335.9692,321.4326 c -2.211,2.273 -4.865,4.136 -7.958,5.59 -3.098,1.449 -6.538,2.681 -10.327,3.693 l -12.317,3.222 c -1.771,0.504 -3.348,1.137 -4.738,1.894 -1.39,0.758 -2.082,1.831 -2.082,3.222 0,3.283 2.967,4.925 8.904,4.925 4.041,0 8.461,-0.568 13.265,-1.706 4.8,-1.134 8.905,-2.4 12.315,-3.787 1.768,3.536 3.346,7.608 4.739,12.22 1.388,4.61 2.208,8.935 2.463,12.982 -5.56,1.894 -11.18,3.344 -16.866,4.358 -5.683,1.009 -10.926,1.516 -15.726,1.516 -6.064,0 -11.592,-0.758 -16.58,-2.274 -4.991,-1.516 -9.317,-3.695 -12.981,-6.538 -3.664,-2.842 -6.507,-6.287 -8.525,-10.328 -2.023,-4.044 -3.033,-8.528 -3.033,-13.452 0,-7.834 2.209,-14.021 6.633,-18.569 4.419,-4.549 9.977,-7.771 16.673,-9.665 l 12.886,-3.601 c 2.148,-0.633 4.041,-1.357 5.686,-2.18 1.639,-0.822 2.462,-2.053 2.462,-3.695 0,-1.263 -0.411,-2.271 -1.231,-3.029 -0.823,-0.758 -1.865,-1.36 -3.127,-1.801 -1.264,-0.442 -2.719,-0.726 -4.358,-0.852 -1.644,-0.128 -3.222,-0.19 -4.737,-0.19 -4.424,0 -8.844,0.474 -13.264,1.422 -4.424,0.947 -8.655,2.365 -12.696,4.261 -1.037,-2.266 -1.913,-4.521 -2.716,-6.77 19.16,-6.443 40.209,-11.657 62.673,-15.408 l 0.016,0.011 c 3.852,3.032 6.756,6.633 8.716,10.799 1.956,4.169 2.937,8.653 2.937,13.453 0,4.673 -0.633,8.653 -1.895,11.938 -1.265,3.283 -3.002,6.065 -5.211,8.339" /><path
       inkscape:connector-curvature="0"
       id="path54"
       style="fill:#ffffff;fill-opacity:1;fill-rule:nonzero;stroke:none"
       d="m 596.5669,316.8007 c 1.998,0.671 4.026,1.179 6.044,1.744 2.023,0.525 4.058,0.986 6.094,1.433 4.081,0.852 8.174,1.625 12.293,2.235 l 2.246,0.334 -0.683,-2.132 c -1.029,-3.208 -2.142,-6.39 -3.357,-9.539 -1.203,-3.155 -2.528,-6.273 -4.01,-9.339 0.24,3.598 1.052,8.045 1.859,11.323 1.116,4.311 0.659,5.802 2.836,8.388 l 1.561,-1.797 c -4.1,-0.733 -7.555,-1.892 -11.692,-2.385 -2.074,-0.221 -4.652,-0.182 -7.064,-0.271 -2.094,-0.105 -4.017,0.003 -6.127,0.006" /></g></svg>